<svg xmlns="http://www.w3.org/2000/svg" xmlns:xlink="http://www.w3.org/1999/xlink" width="20" height="20" viewBox="0 0 20 20">
    <defs>
        <path id="jpg8biepma" d="M0 0H20V20H0z"/>
    </defs>
    <g fill="none" fill-rule="evenodd">
        <g>
            <g transform="translate(-62 -18) translate(62 18)">
                <mask id="ovw0zpricb" fill="#fff">
                    <use xlink:href="#jpg8biepma"/>
                </mask>
                <path fill="#FFF" fill-rule="nonzero" d="M10 0c1.31 0 2.568.253 3.774.76 1.204.505 2.283 1.219 3.236 2.142.951.952 1.688 2.03 2.208 3.235.521 1.206.782 2.465.782 3.775 0 1.786-.454 3.44-1.362 4.958-.908 1.517-2.128 2.722-3.66 3.614-1.532.893-3.193 1.34-4.978 1.34-1.602 0-3.099-.359-4.49-1.076l-.194-.104-5.144 1.351c-.08.021-.153-.031-.17-.103L0 19.86l.005-.034 1.393-5.01-.1-.176C.577 13.343.18 11.948.101 10.46l-.01-.281-.004-.267c0-1.786.447-3.439 1.34-4.957.892-1.517 2.098-2.723 3.615-3.615C6.561.447 8.214 0 10 0zm0 1.903c-1.443 0-2.777.36-4.003 1.082-1.228.722-2.202 1.696-2.924 2.923-.721 1.227-1.082 2.56-1.082 4.004 0 1.449.375 2.793 1.13 4.04l.13.207.175.308.013.105-.773 2.765 2.853-.733.102.014.31.177.209.122c1.184.67 2.47 1.004 3.86 1.004 1.444 0 2.785-.36 4.026-1.083 1.242-.722 2.231-1.696 2.968-2.924.735-1.226 1.103-2.56 1.103-4.002 0-1.038-.216-2.046-.649-3.027-.433-.983-1.033-1.856-1.799-2.622-.765-.766-1.63-1.35-2.598-1.754-.966-.404-1.983-.606-3.051-.606zm-3.478 3.38h.528l.079.004c.107.008.2.035.278.082.093.056.165.163.225.316l.029.08.747 1.8.035.08c.071.178.076.34.006.479-.127.255-.287.49-.479.703l-.119.125c-.105.105-.169.188-.19.24-.003.008 0 .02.016.045l.037.048.029.034c.402.747.875 1.334 1.417 1.762.402.316 1.012.679 1.826 1.086.182.091.289.082.364-.011l.34-.398.2-.244.156-.196.077-.102c.08-.16.195-.252.343-.252.1 0 .214.016.356.052l.098.04.126.053.238.109.412.197.672.33.155.078.112.077.074.033c.19.087.3.162.345.251.045.09.053.25.036.51-.015.25-.078.508-.186.77-.114.279-.367.547-.754.81-.384.261-.719.41-1.004.44-.424.061-.834.061-1.235 0-.452-.09-1.048-.3-1.79-.625-1.455-.629-2.785-1.772-3.975-3.413l-.162-.227-.103-.107-.119-.171c-.581-.866-.874-1.671-.874-2.417 0-.745.241-1.4.725-1.96l.107-.118.048-.047.082-.076c.18-.156.376-.245.582-.265l.09-.004z" mask="url(#ovw0zpricb)"/>
            </g>
        </g>
    </g>
</svg>
